#!OML:ASF I:\Actors\actors\Patient Classification 1\Patient 1\Session 1\Subject1.ASF
:FULLY-SPECIFIED
:DEGREES
1031
root 0.969627 17.5313 7.69649 11.4011 14.1598 -6.35332
lowerback 4.17621 5.19742 0.0555445
upperback -10.2615 7.23254 0.404223
thorax -13.5598 3.51762 -0.739857
lowerneck -11.8397 -11.6517 -7.07724
upperneck 12.6668 -15.967 8.65416
head 7.08354 -7.37848 2.22305
rclavicle 1.75427e-014 -2.38542e-015
rhumerus 10.015 7.72804 -72.3158
rradius 62.7627
rwrist 38.6103
rhand -6.42065 -52.2008
rfingers 7.12502
rthumb 19.4279 -81.2503
lclavicle 1.75427e-014 -2.38542e-015
lhumerus -46.6028 -19.9399 94.4816
lradius 74.3645
lwrist 14.2315
lhand -28.937 -24.9335
lfingers 7.12502
lthumb -2.29086 5.03393
rfemur -0.325059 33.9104 18.2389
rtibia -2.41295
rfoot -35.2688 -45.5241
rtoes 24.1122
lfemur -5.09706 -45.4044 -12.8953
ltibia -5.50133
lfoot -2.82518 42.5879
ltoes 1.66341
1032
root 0.970535 17.5316 7.70322 11.3948 13.836 -6.40556
lowerback 4.1057 5.24784 -0.0301843
upperback -10.2401 7.29997 0.490514
thorax -13.5156 3.5659 -0.602284
lowerneck -12.0931 -11.5913 -6.91944
upperneck 12.8533 -15.8697 8.39257
head 7.14319 -7.3324 2.11438
rclavicle 2.70844e-014 3.97569e-015
rhumerus 9.18311 8.81093 -72.7757
rradius 63.6651
rwrist 35.0736
rhand -2.88849 -51.4135
rfingers 7.12502
rthumb 22.821 -80.0834
lclavicle 2.70844e-014 3.97569e-015
lhumerus -46.7377 -19.6186 94.5632
lradius 74.4095
lwrist 14.29
lhand -28.912 -25.0888
lfingers 7.12502
lthumb -2.2667 4.8789
rfemur -0.530491 33.3489 18.1362
rtibia -2.32571
rfoot -34.1566 -45.0982
rtoes 23.2016
lfemur -4.7025 -45.2067 -13.1021
ltibia -5.7384
lfoot -3.38894 42.7822
ltoes 2.84156
1033
root 0.971626 17.5338 7.70986 11.4983 13.4669 -6.37378
lowerback 3.99777 5.3153 -0.138338
upperback -10.2626 7.38197 0.508251
thorax -13.4937 3.61901 -0.527926
lowerneck -12.1557 -11.6335 -7.10915
upperneck 12.8451 -15.8894 8.39299
head 7.16807 -7.34886 2.13534
rclavicle 6.8531e-014 2.82274e-014
rhumerus 8.49618 9.73483 -73.3025
rradius 64.5528
rwrist 30.8074
rhand 0.0580294 -49.591
rfingers 7.12502
rthumb 25.646 -77.8838
lclavicle 6.8531e-014 2.82274e-014
lhumerus -46.9102 -19.4274 94.6462
lradius 74.4644
lwrist 14.3818
lhand -28.7984 -24.808
lfingers 7.12502
lthumb -2.15703 5.1608
rfemur -0.814275 33.0172 17.8842
rtibia -2.27762
rfoot -33.353 -44.731
rtoes 22.6405
lfemur -4.45321 -44.966 -13.3061
ltibia -5.94234
lfoot -3.81501 42.9175
ltoes 3.75121
1034
root 0.974372 17.5338 7.71543 11.5696 13.0716 -6.49667
lowerback 3.92049 5.37414 -0.00452211
upperback -10.3119 7.47729 0.510628
thorax -13.4868 3.65198 -0.607109
lowerneck -12.2554 -11.5727 -6.94507
upperneck 12.9342 -15.8178 8.27593
head 7.1847 -7.3111 2.07782
rclavicle -2.48481e-016 1.59028e-015
rhumerus 7.87513 10.4368 -73.9484
rradius 65.5138
rwrist 27.0038
rhand 3.32308 -47.2235
rfingers 7.12502
rthumb 28.7692 -75.0267
lclavicle -2.48481e-016 1.59028e-015
lhumerus -47.0478 -19.284 94.6251
lradius 74.4877
lwrist 14.4179
lhand -28.6672 -24.3144
lfingers 7.12502
lthumb -2.03034 5.6557
rfemur -1.07243 32.8693 17.8197
rtibia -2.24223
rfoot -32.5908 -44.4384
rtoes 22.194
lfemur -4.22566 -44.6636 -13.3263
ltibia -6.13498
lfoot -4.18061 43.0294
ltoes 4.49998
1035
root 0.955294 17.5476 7.74673 11.1447 12.9005 -6.47921
lowerback 4.09831 5.33614 -0.377355
upperback -10.1605 7.39116 0.613169
thorax -13.4852 3.6526 -0.291467
lowerneck -12.2237 -11.5819 -6.93029
upperneck 12.8011 -15.8232 8.2784
head 7.13554 -7.31756 2.08062
rclavicle -1.0953e-013 -3.97569e-014
rhumerus 7.39779 10.8979 -74.5314
rradius 66.4686
rwrist 25.0552
rhand 2.61985 -44.4448
rfingers 7.12502
rthumb 28.0972 -72.3602
lclavicle -1.0953e-013 -3.97569e-014
lhumerus -47.1779 -19.2247 94.576
lradius 74.494
lwrist 14.4432
lhand -28.6015 -24.1647
lfingers 7.12502
lthumb -1.96682 5.80596
rfemur 0.00727892 34.3598 18.5288
rtibia -2.49349
rfoot -34.1116 -45.2042
rtoes 23.336
lfemur -2.95403 -44.6582 -13.9993
ltibia -6.61514
lfoot -4.25878 43.1764
ltoes 4.59399
